<mxfile host="app.diagrams.net" modified="2023-10-05T08:53:19.553Z" agent="Mozilla/5.0 (Macintosh; Intel Mac OS X 10_15_7) AppleWebKit/537.36 (KHTML, like Gecko) Chrome/117.0.0.0 Safari/537.36" etag="h02go5O2Podn0JgJTWW6" version="22.0.2" type="device">
  <diagram name="Page-1" id="QjcXZq2Il5Mo_Dh4dNE4">
    <mxGraphModel dx="877" dy="473" grid="1" gridSize="10" guides="1" tooltips="1" connect="1" arrows="1" fold="1" page="1" pageScale="1" pageWidth="827" pageHeight="1169" math="0" shadow="0">
      <root>
        <mxCell id="0" />
        <mxCell id="1" parent="0" />
        <mxCell id="GTuNXqq2HG5AMrcNNG87-4" value="" style="rounded=0;whiteSpace=wrap;html=1;" parent="1" vertex="1">
          <mxGeometry x="160" y="120" width="670" height="250" as="geometry" />
        </mxCell>
        <mxCell id="GTuNXqq2HG5AMrcNNG87-3" value="Internet" style="ellipse;shape=cloud;whiteSpace=wrap;html=1;" parent="1" vertex="1">
          <mxGeometry x="30" y="140" width="120" height="80" as="geometry" />
        </mxCell>
        <mxCell id="GTuNXqq2HG5AMrcNNG87-5" value="host1" style="text;html=1;strokeColor=none;fillColor=none;align=center;verticalAlign=middle;whiteSpace=wrap;rounded=0;" parent="1" vertex="1">
          <mxGeometry x="160" y="120" width="60" height="30" as="geometry" />
        </mxCell>
        <mxCell id="GTuNXqq2HG5AMrcNNG87-8" value="" style="endArrow=none;html=1;rounded=0;exitX=1;exitY=0.5;exitDx=0;exitDy=0;" parent="1" edge="1">
          <mxGeometry width="50" height="50" relative="1" as="geometry">
            <mxPoint x="280" y="180" as="sourcePoint" />
            <mxPoint x="680" y="180" as="targetPoint" />
          </mxGeometry>
        </mxCell>
        <mxCell id="GTuNXqq2HG5AMrcNNG87-9" value="" style="endArrow=none;html=1;rounded=0;exitX=1;exitY=0.5;exitDx=0;exitDy=0;" parent="1" edge="1">
          <mxGeometry width="50" height="50" relative="1" as="geometry">
            <mxPoint x="280" y="260" as="sourcePoint" />
            <mxPoint x="680" y="260" as="targetPoint" />
          </mxGeometry>
        </mxCell>
        <mxCell id="GTuNXqq2HG5AMrcNNG87-10" value="" style="endArrow=none;html=1;rounded=0;" parent="1" edge="1">
          <mxGeometry width="50" height="50" relative="1" as="geometry">
            <mxPoint x="360" y="260" as="sourcePoint" />
            <mxPoint x="360" y="180" as="targetPoint" />
          </mxGeometry>
        </mxCell>
        <mxCell id="GTuNXqq2HG5AMrcNNG87-11" value="public network" style="ellipse;whiteSpace=wrap;html=1;" parent="1" vertex="1">
          <mxGeometry x="200" y="160" width="100" height="40" as="geometry" />
        </mxCell>
        <mxCell id="GTuNXqq2HG5AMrcNNG87-12" value="private network" style="ellipse;whiteSpace=wrap;html=1;" parent="1" vertex="1">
          <mxGeometry x="200" y="240" width="100" height="40" as="geometry" />
        </mxCell>
        <mxCell id="GTuNXqq2HG5AMrcNNG87-13" value="gateway" style="rounded=0;whiteSpace=wrap;html=1;" parent="1" vertex="1">
          <mxGeometry x="330" y="200" width="60" height="40" as="geometry" />
        </mxCell>
        <mxCell id="GTuNXqq2HG5AMrcNNG87-17" value="" style="endArrow=none;html=1;rounded=0;" parent="1" edge="1">
          <mxGeometry width="50" height="50" relative="1" as="geometry">
            <mxPoint x="400" y="320" as="sourcePoint" />
            <mxPoint x="400" y="260" as="targetPoint" />
          </mxGeometry>
        </mxCell>
        <mxCell id="GTuNXqq2HG5AMrcNNG87-19" value="" style="endArrow=none;html=1;rounded=0;" parent="1" edge="1">
          <mxGeometry width="50" height="50" relative="1" as="geometry">
            <mxPoint x="480" y="320" as="sourcePoint" />
            <mxPoint x="480" y="260" as="targetPoint" />
          </mxGeometry>
        </mxCell>
        <mxCell id="GTuNXqq2HG5AMrcNNG87-20" value="" style="endArrow=none;html=1;rounded=0;" parent="1" edge="1">
          <mxGeometry width="50" height="50" relative="1" as="geometry">
            <mxPoint x="560" y="320" as="sourcePoint" />
            <mxPoint x="560" y="260" as="targetPoint" />
          </mxGeometry>
        </mxCell>
        <mxCell id="GTuNXqq2HG5AMrcNNG87-21" value="" style="endArrow=none;html=1;rounded=0;" parent="1" edge="1">
          <mxGeometry width="50" height="50" relative="1" as="geometry">
            <mxPoint x="640" y="320" as="sourcePoint" />
            <mxPoint x="640" y="260" as="targetPoint" />
          </mxGeometry>
        </mxCell>
        <mxCell id="GTuNXqq2HG5AMrcNNG87-22" value="id" style="rounded=0;whiteSpace=wrap;html=1;" parent="1" vertex="1">
          <mxGeometry x="370" y="320" width="60" height="40" as="geometry" />
        </mxCell>
        <mxCell id="GTuNXqq2HG5AMrcNNG87-23" value="satellite" style="rounded=0;whiteSpace=wrap;html=1;" parent="1" vertex="1">
          <mxGeometry x="450" y="320" width="60" height="40" as="geometry" />
        </mxCell>
        <mxCell id="GTuNXqq2HG5AMrcNNG87-24" value="aaphub" style="rounded=0;whiteSpace=wrap;html=1;" parent="1" vertex="1">
          <mxGeometry x="530" y="320" width="60" height="40" as="geometry" />
        </mxCell>
        <mxCell id="GTuNXqq2HG5AMrcNNG87-25" value="aapcontrol" style="rounded=0;whiteSpace=wrap;html=1;" parent="1" vertex="1">
          <mxGeometry x="610" y="320" width="60" height="40" as="geometry" />
        </mxCell>
        <mxCell id="GTuNXqq2HG5AMrcNNG87-26" value="" style="endArrow=none;html=1;rounded=0;entryX=0.02;entryY=0.5;entryDx=0;entryDy=0;entryPerimeter=0;" parent="1" edge="1">
          <mxGeometry width="50" height="50" relative="1" as="geometry">
            <mxPoint x="150" y="180" as="sourcePoint" />
            <mxPoint x="201" y="180" as="targetPoint" />
          </mxGeometry>
        </mxCell>
        <mxCell id="YY6Y8TDiavGG6F0nNvFd-1" value="diagram created at&amp;nbsp;https://app.diagrams.net/&amp;nbsp;" style="text;html=1;strokeColor=none;fillColor=none;align=center;verticalAlign=middle;whiteSpace=wrap;rounded=0;" parent="1" vertex="1">
          <mxGeometry x="40" y="370" width="280" height="30" as="geometry" />
        </mxCell>
      </root>
    </mxGraphModel>
  </diagram>
</mxfile>
